<?xml version="1.0" encoding="UTF-8" standalone="no"?>
<!-- Created with Inkscape (http://www.inkscape.org/) -->

<svg
   width="7.5793514mm"
   height="8.4266281mm"
   viewBox="0 0 7.5793514 8.4266281"
   version="1.1"
   id="svg5"
   xml:space="preserve"
   xmlns:inkscape="http://www.inkscape.org/namespaces/inkscape"
   xmlns:sodipodi="http://sodipodi.sourceforge.net/DTD/sodipodi-0.dtd"
   xmlns="http://www.w3.org/2000/svg"
   xmlns:svg="http://www.w3.org/2000/svg"><sodipodi:namedview
     id="namedview7"
     pagecolor="#ffffff"
     bordercolor="#999999"
     borderopacity="1"
     inkscape:showpageshadow="0"
     inkscape:pageopacity="0"
     inkscape:pagecheckerboard="0"
     inkscape:deskcolor="#d1d1d1"
     inkscape:document-units="mm"
     showgrid="false" /><defs
     id="defs2" /><g
     inkscape:label="Warstwa 1"
     inkscape:groupmode="layer"
     id="layer1"
     transform="translate(-25.56478,-104.4748)"><path
       d="m 28.511792,111.2161 a 0.42133127,0.42133127 0 0 0 0.421331,-0.42134 v -2.52799 a 0.42133155,0.42133155 0 0 0 -0.842663,0 v 2.52799 a 0.42133127,0.42133127 0 0 0 0.421332,0.42134 z m 4.213312,-5.05597 H 31.03978 v -0.42135 a 1.2639938,1.2639938 0 0 0 -1.263994,-1.26399 h -0.842663 a 1.2639938,1.2639938 0 0 0 -1.263994,1.26399 v 0.42135 h -1.685325 a 0.42133131,0.42133131 0 0 0 0,0.84265 h 0.421331 v 4.63465 a 1.2639938,1.2639938 0 0 0 1.263994,1.26399 h 3.370651 a 1.2639938,1.2639938 0 0 0 1.263993,-1.26399 v -4.63465 h 0.421331 a 0.42133131,0.42133131 0 0 0 0,-0.84265 z m -4.213312,-0.42135 a 0.42133127,0.42133127 0 0 1 0.421331,-0.42132 h 0.842663 a 0.42133127,0.42133127 0 0 1 0.42133,0.42132 v 0.42135 h -1.685324 z m 2.949318,5.89865 a 0.42133127,0.42133127 0 0 1 -0.42133,0.42132 h -3.370651 a 0.42133127,0.42133127 0 0 1 -0.421331,-0.42132 v -4.63465 h 4.213312 z m -1.263994,-0.42133 a 0.42133127,0.42133127 0 0 0 0.421331,-0.42134 v -2.52799 a 0.42133131,0.42133131 0 0 0 -0.842661,0 v 2.52799 a 0.42133127,0.42133127 0 0 0 0.42133,0.42134 z"
       fill="#6563ff"
       id="path9"
       style="fill:#333366;fill-opacity:1;stroke-width:0.421331"
       inkscape:export-filename="path9.svg"
       inkscape:export-xdpi="301.60898"
       inkscape:export-ydpi="301.60898" /></g></svg>
