<?xml version="1.0" encoding="UTF-8" standalone="no"?>
<!-- Created with Inkscape (http://www.inkscape.org/) -->

<svg
   width="7.4079857mm"
   height="8.2383118mm"
   viewBox="0 0 7.4079857 8.2383118"
   version="1.1"
   id="svg5"
   xml:space="preserve"
   xmlns:inkscape="http://www.inkscape.org/namespaces/inkscape"
   xmlns:sodipodi="http://sodipodi.sourceforge.net/DTD/sodipodi-0.dtd"
   xmlns="http://www.w3.org/2000/svg"
   xmlns:svg="http://www.w3.org/2000/svg"><sodipodi:namedview
     id="namedview7"
     pagecolor="#ffffff"
     bordercolor="#999999"
     borderopacity="1"
     inkscape:showpageshadow="0"
     inkscape:pageopacity="0"
     inkscape:pagecheckerboard="0"
     inkscape:deskcolor="#d1d1d1"
     inkscape:document-units="mm"
     showgrid="false" /><defs
     id="defs2" /><g
     inkscape:label="Warstwa 1"
     inkscape:groupmode="layer"
     id="layer1"
     transform="translate(-46.251958,-106.8033)"><path
       id="path875"
       style="fill:#333366;fill-opacity:1;stroke-width:0.411914"
       d="m 47.487702,106.80331 a 1.235745,1.235745 0 0 0 -1.235745,1.23575 v 5.76681 a 1.235745,1.235745 0 0 0 1.235745,1.23575 h 1.647661 a 0.41192,0.41192 0 0 0 0,-0.82384 h -1.647661 a 0.41191501,0.41191501 0 0 1 -0.411914,-0.41191 v -5.76681 a 0.41191501,0.41191501 0 0 1 0.411914,-0.41191 h 2.059576 v 1.23574 a 1.235745,1.235745 0 0 0 1.235745,1.23575 h 1.235745 v 0.41191 a 0.41191527,0.41191527 0 0 0 0.82383,0 v -0.82384 -0.0241 a 0.53960867,0.53960867 0 0 0 -0.02413,-0.11178 v -0.037 a 0.44074907,0.44074907 0 0 0 -0.07884,-0.11506 l -2.471491,-2.47149 a 0.44074907,0.44074907 0 0 0 -0.11505,-0.078 0.13181281,0.13181281 0 0 0 -0.03701,0 l -0.131943,-0.0459 z m 2.883406,1.40469 1.0676,1.0668 h -0.655685 a 0.41191501,0.41191501 0 0 1 -0.411915,-0.41191 z m -2.059575,1.0668 a 0.41192,0.41192 0 0 0 0,0.82384 h 0.411914 a 0.41192,0.41192 0 0 0 0,-0.82384 z m 0,1.64766 a 0.41191761,0.41191761 0 0 0 0,0.82383 h 2.47149 a 0.41191761,0.41191761 0 0 0 0,-0.82383 z m 3.973531,0.85441 c -5.43e-4,5.7e-4 -0.0016,0.002 -0.0016,0.002 -0.04429,0.0458 -0.08805,0.0922 -0.131942,0.13841 0.07587,-0.0402 0.151403,-0.0819 0.226876,-0.12315 -0.0042,-10e-4 -0.0086,-0.002 -0.01292,-0.003 -0.01563,-0.005 -0.03129,-0.009 -0.04747,-0.0109 -0.01105,-8.7e-4 -0.02197,0.002 -0.03299,-0.003 z m 0.209176,0.0845 v 8e-4 8.1e-4 8.1e-4 7.9e-4 8.1e-4 8.1e-4 7.9e-4 0.002 8e-4 8e-4 8.1e-4 8.1e-4 8e-4 8.1e-4 0.002 c -0.0079,0.008 -0.01698,0.0157 -0.02896,0.0216 -0.0044,0.003 -0.0086,0.005 -0.01292,0.008 7.52e-4,0.008 0.0023,0.0171 0.004,0.0241 0.02338,0.0243 0.03791,0.0602 0.05953,0.0869 -0.02348,0.014 -0.04755,0.0238 -0.07079,0.0378 -0.144024,0.0859 -0.28052,0.1855 -0.42157,0.27595 -0.138186,0.093 -0.281314,0.18195 -0.399043,0.30089 -0.08964,0.0906 -0.185326,0.008 -0.09735,-0.0813 0.124205,-0.12906 0.277261,-0.22635 0.424786,-0.32583 0.0191,-0.0125 0.03814,-0.026 0.05712,-0.0386 -0.01851,-0.003 -0.03235,-0.0125 -0.04023,-0.0241 -0.03255,0.0162 -0.06536,0.0325 -0.09816,0.0483 -0.03511,0.0374 -0.07098,0.0746 -0.107811,0.11022 -0.06293,0.0631 -0.126447,0.12517 -0.197912,0.1786 -0.01152,-0.009 -0.02357,-0.0199 -0.0354,-0.0289 -0.0393,0.0303 -0.07848,0.0609 -0.117464,0.0917 -0.06335,0.0509 -0.128564,0.0995 -0.193086,0.14884 -0.02955,0.0227 -0.05723,0.0266 -0.07884,0.0234 -0.02394,0.019 -0.04747,0.0383 -0.07081,0.0579 -0.0014,10e-4 -0.0026,0.003 -0.004,0.005 -9.82e-4,0.008 -0.002,0.0165 -0.0048,0.0241 9.93e-4,2.1e-4 0.0022,4.6e-4 0.0033,7.9e-4 0.0031,0.002 -0.0056,0.005 -0.0081,0.006 -7.15e-4,6.5e-4 -0.0017,0.002 -0.0023,0.002 -0.0034,0.003 -0.0076,0.008 -0.01214,0.0125 -0.0014,0.001 -0.0026,0.003 -0.004,0.005 -0.01871,0.0188 -0.03705,0.0389 -0.05631,0.0571 -0.0065,0.008 -0.01277,0.014 -0.0193,0.0201 -0.0051,0.005 -0.0089,0.0165 -0.0161,0.016 -0.003,-4.6e-4 -0.0054,-3.5e-4 -0.0081,-8.1e-4 -0.002,5.4e-4 -0.0042,0.001 -0.0064,-8.1e-4 h -8.03e-4 c -0.0137,0.014 -0.02759,0.0271 -0.04264,0.0394 -0.0011,0.001 -0.0022,0.002 -0.0033,0.003 -1.91e-4,0.008 -0.0031,0.0156 -0.01043,0.0241 -0.0079,0.009 -0.0042,0.005 -0.01214,0.014 -0.01448,0.0179 -0.02801,0.0353 -0.04264,0.0531 -0.01895,0.0207 -0.04026,0.0357 -0.06276,0.0523 0.009,0.008 0.01308,0.0238 0.02011,0.0338 -0.01868,0.0271 -0.04929,0.0431 -0.07482,0.0627 -0.02299,0.0157 -0.0459,0.0319 -0.06919,0.0475 -0.01136,0.008 -0.02195,0.0156 -0.03378,0.0193 -0.0097,0.0125 -0.01971,0.0266 -0.02977,0.0386 -0.0033,0.003 -0.0064,0.008 -0.0097,0.0109 -0.0012,10e-4 -0.02035,0.0224 -0.02253,0.0209 -0.0031,-0.002 -0.0054,-0.003 -0.0081,-0.006 -0.0075,0.0125 -0.02166,0.0269 -0.02654,0.033 -0.02086,0.0218 -0.04126,0.0439 -0.06276,0.0652 0.0025,0.006 0.0016,0.0156 -0.0033,0.0249 0.01012,0.003 0.02105,0.014 0.01526,0.0353 -0.004,0.0336 -0.0109,0.0668 -0.0177,0.0998 0.01479,-0.003 0.02851,0.014 0.02011,0.0419 -0.0081,0.0268 -0.01417,0.054 -0.02092,0.0813 -0.0053,0.0221 -0.01,0.0447 -0.01448,0.0668 -0.0026,0.0125 -0.0092,0.0216 -0.0161,0.0257 v 0.0241 c 0.0025,0.005 0.0042,0.0109 0.0048,0.0185 0.0015,0.0157 0.0023,0.0316 0.0033,0.0475 0.0075,0.005 0.0137,0.014 0.01448,0.0305 0.002,0.0397 0.0023,0.0794 0.0016,0.1191 -9.34e-4,0.0336 -0.0051,0.0671 -0.0081,0.10057 -0.0019,0.0199 -0.0123,0.0294 -0.02253,0.0305 -0.0012,0.0336 -0.0026,0.0669 -0.004,0.10057 -7.7e-4,0.0176 -0.0016,0.0355 -0.0016,0.0531 0.0015,0.005 0.0026,0.008 0.0033,0.014 0.0036,0.0353 0.0072,0.0701 0.0097,0.1054 0.0044,0.0565 0.0036,0.11474 0.0016,0.17136 0.005,0.006 0.0076,0.019 0.0048,0.033 -0.0025,0.0125 -0.0044,0.0258 -0.004,0.0386 0.0086,0.002 0.01818,0.0109 0.02413,0.0241 0.0047,0.0109 0.0095,0.0224 0.01448,0.0338 h 8.05e-4 c 0.01028,-7.8e-4 0.02338,0.006 0.03299,0.0241 0.01697,0.0304 0.0362,0.0568 0.05471,0.0861 0.021,0.0335 0.04619,0.0629 0.07401,0.0909 0.0064,6.9e-4 0.01386,0.003 0.02172,0.009 0.003,0.002 0.0059,0.005 0.0089,0.006 0.01121,0.008 0.02323,0.0156 0.03459,0.0226 -0.0045,-0.014 0.0016,-0.0243 0.01043,-0.0265 0.0092,-0.002 0.02225,0.003 0.03459,0.016 0.004,0.005 0.0093,0.008 0.01448,0.0109 0.0093,0.002 0.01879,0.003 0.02816,0.005 0.0022,-3.7e-4 0.0047,-7.3e-4 0.0073,-8.1e-4 0.0013,-3e-5 0.0026,-4e-5 0.004,0 0.04758,0.003 0.09498,0.008 0.142405,0.0125 0.0067,5.9e-4 0.0053,-3.9e-4 0.0097,0 0.0034,-0.002 0.0075,-0.003 0.01214,-0.003 0.0025,-3.6e-4 0.0053,4e-5 0.0081,0 0.0072,0 0.01463,-2e-5 0.02172,0 0.0019,-0.009 0.01074,-0.0168 0.02575,-0.0185 0.0025,-2.8e-4 0.0053,-8e-5 0.0081,0 0.04856,0.002 0.09713,0.005 0.145612,0.008 0.02715,0.002 0.01401,1.6e-4 0.03862,0.003 0.0072,7.8e-4 0.01308,0.002 0.0177,0.005 h 8.04e-4 c 0.05008,-0.005 0.100292,-0.005 0.150438,-0.006 0.05162,-0.001 0.02623,-2.5e-4 0.07563,-7.9e-4 0.0123,-3e-4 0.02085,0.003 0.02654,0.008 h 8.05e-4 c 0.02483,4.4e-4 0.05007,0.002 0.07482,0.002 0.04292,0.002 0.02198,0.002 0.06355,0.003 0.0054,3.6e-4 0.0097,7.6e-4 0.0137,0.003 0.02002,-6.8e-4 0.04035,-8.1e-4 0.06034,-8.1e-4 0.0053,-4e-5 0.01074,-1e-5 0.0161,0 0.0013,0 0.0026,-1e-5 0.004,0 l 0.118258,-0.005 c 0.01401,-6e-4 0.01674,-6.5e-4 0.02092,-7.9e-4 h 8.05e-4 c 0.03822,-0.014 0.07582,-0.0297 0.112638,-0.0467 0.0064,-0.003 0.01168,-0.005 0.01689,-0.005 0.0012,-7e-5 0.002,7.7e-4 0.0033,8.1e-4 6.01e-4,-4.2e-4 0.0016,-0.002 0.0016,-0.002 0.0044,-0.003 0.0086,-0.006 0.01292,-0.009 0.0079,-0.006 0.01526,-0.009 0.02172,-0.009 9.59e-4,-1e-4 -0.0016,7.9e-4 0.0025,8e-4 0.0019,-0.005 0.005,-0.009 0.0097,-0.016 0.02057,-0.0234 0.0404,-0.0478 0.06034,-0.0716 0.016,-0.0184 0.03216,-0.035 0.04828,-0.0531 0.0093,-0.0109 0.01927,-0.016 0.02735,-0.016 0.0056,8e-5 0.01043,0.003 0.0137,0.006 0.0044,-0.005 0.0086,-0.0109 0.01292,-0.016 -0.0065,-0.008 -0.0051,-0.0235 0.01043,-0.0378 0.01417,-0.0125 0.02382,-0.0282 0.03378,-0.0442 0.01401,-0.0224 0.007,-0.0125 0.02172,-0.0338 0.007,-0.0109 0.0151,-0.0168 0.02253,-0.0185 0.01245,-0.003 0.02268,0.006 0.02334,0.0193 0.02837,-0.0422 0.05555,-0.0847 0.08367,-0.12704 0.0078,-0.0125 0.01692,-0.0174 0.02494,-0.0185 0.0084,-7.5e-4 0.01572,0.003 0.0193,0.0109 h 8.05e-4 c 8.95e-4,-2.4e-4 0.0016,-6.5e-4 0.0023,-7.9e-4 0.0042,-9.3e-4 0.0079,-3.4e-4 0.01121,7.9e-4 0.01105,-0.0156 0.02092,-0.0311 0.03137,-0.0467 0.0078,-0.0109 0.01692,-0.0176 0.02494,-0.0185 0.0033,-3.9e-4 0.0061,7.2e-4 0.0089,8.1e-4 0.01012,-0.0109 0.02044,-0.0209 0.03058,-0.0313 6.73e-4,-0.006 0.0042,-0.014 0.01121,-0.0226 0.02527,-0.0291 0.05141,-0.0575 0.07884,-0.0845 0.0053,-0.005 0.01074,-0.0109 0.0161,-0.016 0.0081,-0.008 0.01632,-0.0125 0.02334,-0.0125 0.007,-8.4e-4 0.01292,-4.4e-4 0.01689,0.006 0.002,-0.002 0.0044,-0.005 0.0064,-0.006 v -8.1e-4 c 0.0015,-0.005 0.004,-0.008 0.0073,-0.0125 0.02519,-0.0339 0.0517,-0.0674 0.07804,-0.10057 0.02092,-0.0262 0.0407,-0.0537 0.05953,-0.0813 0.0079,-0.0109 0.01691,-0.0168 0.02494,-0.0177 0.0048,-4.5e-4 0.0092,-6.9e-4 0.01292,0.003 0.01938,-0.0238 0.0385,-0.0472 0.05712,-0.0716 0.0076,-0.009 0.01666,-0.0171 0.02413,-0.0185 0.0053,-0.001 0.0092,0.002 0.01292,0.003 0.0023,-0.003 0.0048,-0.005 0.0073,-0.008 0.0045,-0.006 0.0097,-0.0109 0.01448,-0.0156 0.01401,-0.014 0.02928,-0.0271 0.04505,-0.0386 -0.0016,-0.008 0.0014,-0.0179 0.01043,-0.029 0.02626,-0.0311 0.05563,-0.0596 0.08447,-0.0884 0.0036,-0.003 0.0069,-0.006 0.01043,-0.0109 0.0042,-0.005 0.0086,-0.009 0.01292,-0.0125 8.12e-4,-6.1e-4 8.56e-4,-0.002 0.0025,-0.002 0.02021,-0.0193 0.04056,-0.0381 0.06114,-0.0571 0.0073,-0.006 0.01448,-0.0109 0.02092,-0.0125 0.0034,-4.9e-4 0.0069,-6.3e-4 0.0097,0 0.01495,-0.014 0.031,-0.0254 0.04666,-0.0386 0.0033,-0.003 0.0062,-0.008 0.0097,-0.0109 0.0054,-0.006 0.01199,-0.009 0.0177,-0.016 0.0025,-0.002 0.0054,-0.005 0.0081,-0.006 -0.0072,-0.008 -0.0072,-0.0224 0.0073,-0.0378 0.01557,-0.0163 0.03207,-0.0318 0.04828,-0.0475 v -8.1e-4 c 0.0022,-0.006 0.0069,-0.0125 0.01448,-0.0193 0.02276,-0.019 0.04683,-0.0364 0.07081,-0.0539 v -8.1e-4 c -0.0012,-0.008 0.0023,-0.0191 0.01292,-0.0297 0.0095,-0.009 0.01969,-0.0184 0.02977,-0.0274 0.0017,-0.003 0.0037,-0.006 0.0064,-0.009 0.0186,-0.0218 0.03187,-0.0473 0.04666,-0.0716 0.01603,-0.0257 0.03302,-0.0515 0.04907,-0.0772 0.0073,-0.0125 0.0039,-0.005 0.01043,-0.0177 l 8.05e-4,-8e-4 c -0.0014,-0.005 -0.0028,-0.009 -0.0023,-0.016 0.0012,-0.0321 0.01,-0.0632 0.01849,-0.0942 6.1e-5,-0.0156 -0.0011,-0.0297 -0.0033,-0.0442 -0.002,-0.014 -4.05e-4,-0.0274 0.0048,-0.0338 -0.005,-0.0181 -0.01028,-0.0355 -0.01851,-0.0523 v -8.1e-4 c -0.0067,-0.014 -0.0053,-0.026 -8.03e-4,-0.033 -0.0028,-0.003 -0.0069,-0.006 -0.0097,-0.0109 -0.01308,-0.023 -0.02679,-0.0441 -0.04023,-0.0668 -0.0092,0.006 -0.0246,0.003 -0.03781,-0.014 -0.01168,-0.0156 -0.0075,-0.0109 -0.0185,-0.0241 -0.01012,0.006 -0.02553,0.003 -0.0354,-0.0185 -0.0058,-0.0125 -0.01121,-0.0262 -0.01689,-0.0386 -0.0031,-0.006 -0.0065,-0.0125 -0.0097,-0.0193 l -8.05e-4,-8e-4 c -0.0026,-0.003 -0.0062,-0.006 -0.0089,-0.009 -0.009,-0.0109 -0.01105,-0.021 -0.0097,-0.029 -7.84e-4,-0.002 -0.0034,-0.003 -0.0048,-0.005 h -8.05e-4 c -0.0095,0.006 -0.02511,0.003 -0.03782,-0.014 -0.01463,-0.021 -0.02922,-0.0408 -0.04345,-0.062 -0.0079,1.6e-4 -0.01641,-0.003 -0.02575,-0.014 -0.03554,-0.0408 -0.07163,-0.083 -0.107002,-0.12393 -0.0086,0.002 -0.01999,5.6e-4 -0.03137,-0.0125 -0.0081,-0.008 -0.01603,-0.0163 -0.02413,-0.0241 -0.04881,-0.0483 -0.09682,-0.0982 -0.143198,-0.14884 -0.0056,-0.006 -0.0081,-0.0125 -0.0097,-0.0193 -0.01716,-0.014 -0.0345,-0.0296 -0.05229,-0.0434 -0.0089,-0.006 -0.01432,-0.0125 -0.0161,-0.0193 v -8e-4 c -0.02141,-0.0195 -0.04255,-0.0413 -0.06276,-0.062 -0.0067,-0.006 -0.01292,-0.0125 -0.01448,-0.0193 v -8e-4 c -0.0022,-0.001 -0.0026,-0.002 -0.0048,-0.005 -0.03498,-0.0324 -0.0714,-0.0632 -0.106192,-0.0957 -0.03349,-0.031 -0.0671,-0.0621 -0.09816,-0.0958 -0.01012,0.003 -0.02284,-0.003 -0.03137,-0.0241 l -0.0048,-0.009 c -0.0054,-0.0125 -0.0109,-0.0259 -0.01689,-0.0378 h -8.03e-4 c -0.0064,-10e-4 -0.01355,-0.005 -0.02092,-0.0109 -0.01857,-0.0156 -0.0371,-0.0279 -0.05552,-0.0434 -0.0034,-0.005 -0.0079,-0.008 -0.01214,-0.0109 z m -4.182707,0.70879 a 0.41191504,0.41191504 0 0 0 0,0.82382 h 0.82383 a 0.41191504,0.41191504 0 0 0 0,-0.82382 z m 3.938132,0.12548 c 0.009,-10e-4 0.01621,0.003 0.02011,0.009 0.0058,-0.002 0.01183,-0.002 0.0177,-0.003 0.0072,0.002 0.0151,-10e-4 0.02172,0.005 0.02893,0.014 0.04871,0.054 0.06195,0.0813 0.0039,0.008 0.0051,0.014 0.0048,0.0193 0.01308,0.008 0.02587,0.0159 0.03863,0.0241 0.0109,0.008 0.02153,0.0171 0.03218,0.0241 h 8.05e-4 c 0.0093,-4e-5 0.02086,0.005 0.02896,0.0185 0.02228,0.0165 0.04373,0.0355 0.06517,0.0531 0.01495,0.0125 0.01685,0.0247 0.0137,0.0338 6.5e-4,7.2e-4 0.0016,-0.002 0.0016,0.003 0.04597,0.0492 0.08651,0.10307 0.125512,0.1577 0.0014,0.001 0.0022,0.003 0.0033,0.005 0.0059,0.008 0.01261,0.0157 0.01851,0.0249 0.02335,0.0335 -0.0042,0.0574 -0.02896,0.0346 -10e-4,0.008 -0.0023,0.0162 -0.004,0.0241 -0.0059,0.0232 -0.01597,0.0445 -0.02654,0.066 -0.01826,0.0369 -0.05376,0.0254 -0.04424,-0.0109 -0.01028,0.009 -0.02058,0.0109 -0.02816,0.008 -0.0069,0.0157 -0.01417,0.0313 -0.02172,0.0467 -0.01588,0.0319 -0.03249,0.0638 -0.0523,0.0942 -0.01323,0.0198 -0.02938,0.0249 -0.03861,0.014 -0.01136,0.0125 -0.02332,0.0257 -0.03459,0.0378 -0.01882,0.0212 -0.03926,0.0207 -0.04425,0.003 -0.0044,0.005 -0.0092,0.008 -0.0137,0.0125 0.01767,0.002 0.02598,0.0257 0.0016,0.0467 -0.04505,0.0406 -0.091,0.08 -0.135959,0.12065 0.0058,0.009 0.0019,0.0262 -0.01689,0.0386 -0.02963,0.0196 -0.05833,0.0405 -0.08608,0.0627 -0.04275,0.0338 -0.08354,0.0696 -0.123894,0.10618 -0.0031,0.003 -0.0065,0.005 -0.0097,0.008 -6.77e-4,9.5e-4 3.12e-4,0.002 -0.0025,0.003 -0.01479,0.0179 -0.02995,0.0353 -0.04505,0.0531 -0.02089,0.0249 -0.04286,0.0497 -0.06758,0.0708 -0.01924,0.0165 -0.02933,0.023 -0.04988,0.0386 -0.0075,0.005 -0.0151,0.009 -0.02253,0.0156 0.0089,0.008 0.0089,0.0235 -0.0089,0.0386 -0.02458,0.021 -0.04859,0.0442 -0.07241,0.066 -0.02125,0.0198 -0.0425,0.0403 -0.06677,0.0564 -0.01625,0.0109 -0.0211,0.0125 -0.03863,0.0209 -0.03184,0.0156 -0.06473,0.0262 -0.09814,0.037 -0.02096,0.006 -0.03547,0.002 -0.03942,-0.0109 -0.104044,-0.006 -0.207909,-0.0125 -0.312153,-0.014 -0.03279,-4.5e-4 -0.04105,-0.0255 -0.02575,-0.0386 -0.0039,-0.009 -0.0016,-0.0187 0.01292,-0.0241 -0.0067,-0.006 -0.0109,-0.0177 -0.0089,-0.0338 1.4e-4,-0.001 6.67e-4,-6.1e-4 8.05e-4,-0.003 -0.0026,-7.8e-4 -0.0054,0.002 -0.0081,-0.003 -0.0036,0 6.09e-4,-0.008 8.05e-4,-0.0109 0.0062,-0.0621 0.01292,-0.12423 0.0097,-0.18665 -7.13e-4,-0.014 0.0026,-0.023 0.0081,-0.0289 -0.018,0.003 -0.02134,-0.021 -0.0073,-0.0483 0.0033,-0.005 0.0064,-0.009 0.0097,-0.014 2.92e-4,-0.009 5.12e-4,-0.019 8.05e-4,-0.0289 -0.01787,0.003 -0.02424,-0.0125 -0.01214,-0.0386 0.0037,-0.006 0.0069,-0.0125 0.01121,-0.0193 7.87e-4,-9.2e-4 -0.0016,0.001 0.0025,-0.003 3.6e-5,-0.002 -3.2e-5,-0.003 0,-0.005 v -8.1e-4 c 2.18e-4,-0.0196 0.0095,-0.0313 0.01931,-0.0338 0.0039,-9.8e-4 0.0083,-9.5e-4 0.01214,8.1e-4 0.004,-0.005 0.0086,-0.008 0.0137,-0.009 h 8.05e-4 c 7.38e-4,-6.2e-4 0.0016,0 0.0023,0 0.03802,-0.0294 0.07791,-0.0557 0.118273,-0.082 -0.01199,0.006 -0.02421,0.0125 -0.0362,0.0193 -0.06495,0.038 -0.132923,0.0741 -0.18504,0.12953 -0.03097,0.0328 -0.06378,0.002 -0.03299,-0.0282 0.05497,-0.0587 0.126789,-0.099 0.195499,-0.13918 0.01214,-0.006 0.02405,-0.0125 0.0362,-0.0193 0.0061,-0.003 0.01183,-0.006 0.01689,-0.006 0.0034,-5.9e-4 0.0067,-8.1e-4 0.0097,-8.1e-4 v 8.1e-4 8.1e-4 c 0.01776,0.003 0.02538,0.0229 0.0056,0.0386 0.0079,-0.005 0.01614,-0.0109 0.02413,-0.016 7.72e-4,-9.6e-4 -0.0016,-9e-4 0.0025,-0.003 8.93e-4,-9.8e-4 0.0022,-0.002 0.0033,-0.003 0.0095,-0.009 0.01993,-0.0171 0.02977,-0.0257 -8.84e-4,-0.006 0.0016,-0.0156 0.0056,-0.0241 0.01028,-0.0193 0.02166,-0.035 0.03378,-0.0531 -0.0267,0.005 -0.03701,-0.0282 -0.0016,-0.0475 0.025,-0.0156 0.04991,-0.0299 0.07482,-0.045 0.0036,-0.003 0.007,-0.008 0.01043,-0.0109 0.03411,-0.0347 0.07004,-0.0671 0.105398,-0.10057 0.0092,-0.009 0.01896,-0.0125 0.02654,-0.0125 0.0022,-2e-5 0.0037,2.6e-4 0.0056,7.9e-4 h 8.05e-4 c 0.01632,-0.0168 0.03243,-0.0325 0.04907,-0.049 0.0079,-0.008 0.01557,-0.0125 0.02253,-0.0125 0.0026,-2.3e-4 0.005,-5.4e-4 0.0073,0 0.0097,-0.008 0.01938,-0.0162 0.02896,-0.0241 v -8.1e-4 c 0.002,-0.005 0.0056,-0.009 0.01043,-0.014 0.0095,-0.009 0.0187,-0.0199 0.02816,-0.0297 -0.02673,0.008 -0.04414,-0.0201 -0.01121,-0.0434 0.01951,-0.0156 0.03975,-0.0286 0.06034,-0.0427 0.007,-0.005 0.01339,-0.008 0.01931,-0.008 0.0073,-9e-4 0.01339,-0.002 0.0177,0.005 0.0054,-0.003 0.01074,-0.008 0.0161,-0.0109 0.007,-0.005 0.01354,-0.008 0.01931,-0.008 0.0061,-8.1e-4 0.01121,0.002 0.01526,0.003 0.0047,-0.005 0.0097,-0.0109 0.01448,-0.016 v -8e-4 c 0.0019,-0.006 0.0072,-0.0125 0.01608,-0.0193 0.0051,-0.005 0.01012,-0.008 0.01526,-0.0125 0.0013,-0.001 0.0028,10e-4 0.004,-0.003 0.0012,-0.001 0.0028,-0.002 0.004,-0.003 0.0013,-0.002 0.0028,-0.003 0.004,-0.005 -0.0076,-0.008 -0.0078,-0.0188 0.0064,-0.0346 0.01789,-0.0195 0.03688,-0.0389 0.05631,-0.0571 l 8.05e-4,-8.1e-4 c 0.01797,-0.0234 0.03729,-0.0456 0.05712,-0.0676 0.0042,-0.005 0.0087,-0.009 0.01292,-0.014 0.0059,-0.006 0.01214,-0.009 0.0177,-0.0125 0.01808,-0.0238 0.03791,-0.0456 0.05793,-0.0676 0.0045,-0.005 0.0084,-0.009 0.01292,-0.014 0.0076,-0.008 0.01557,-0.0125 0.02253,-0.014 z m -1.354009,0.26147 c -0.0022,0.002 -0.0042,0.003 -0.0064,0.005 7.17e-4,3.8e-4 -0.0016,4.5e-4 0.0025,8.1e-4 0.0017,0.001 0.0033,-0.003 0.004,-0.005 z m 0.613849,0.52536 c -0.0025,10e-4 -0.0048,0.002 -0.0073,0.003 -0.0016,0.002 -0.0033,0.005 -0.0048,0.006 z m -1.105412,0.12065 c -0.0015,0.003 -0.0039,0.005 -0.0048,0.008 1.96e-4,0.006 6.15e-4,0.0125 8.05e-4,0.0178 0.0016,-0.008 0.0028,-0.0165 0.004,-0.0249 z" /><path
       style="fill:#dd5886;fill-opacity:1;stroke-width:0.0128723"
       d="m 50.680209,115.02031 c -0.07928,-0.0217 -0.143083,-0.0631 -0.203981,-0.13229 -0.09497,-0.1079 -0.09588,-0.11412 -0.10131,-0.6974 -0.0049,-0.52941 0.0016,-0.641 0.04302,-0.73233 0.03316,-0.0732 1.574134,-1.61652 1.659556,-1.66212 0.05604,-0.0299 0.07934,-0.0344 0.180213,-0.0344 0.100775,0 0.12423,0.004 0.180213,0.0343 0.04614,0.0246 0.221544,0.19219 0.619516,0.59201 0.520101,0.52251 0.556646,0.5622 0.57877,0.62852 0.0367,0.11001 0.03085,0.21315 -0.01759,0.31109 -0.03575,0.0722 -0.129304,0.17019 -0.822908,0.86148 -0.682452,0.68019 -0.791622,0.78393 -0.853364,0.81096 l -0.0708,0.031 -0.566383,0.002 c -0.419486,0.002 -0.58157,-0.002 -0.624945,-0.0134 z m 1.46804,-1.32784 0.534044,-0.53416 -0.21219,-0.21248 -0.21219,-0.21248 -0.537524,0.53741 -0.53752,0.5374 v 0.20924 0.20923 h 0.21567 0.215671 z"
       id="path5973" /></g></svg>
