<?xml version="1.0" encoding="UTF-8" standalone="no"?>
<!-- Created with Inkscape (http://www.inkscape.org/) -->

<svg
   width="7.0491428mm"
   height="7.0491447mm"
   viewBox="0 0 7.0491428 7.0491447"
   version="1.1"
   id="svg5"
   xml:space="preserve"
   xmlns:inkscape="http://www.inkscape.org/namespaces/inkscape"
   xmlns:sodipodi="http://sodipodi.sourceforge.net/DTD/sodipodi-0.dtd"
   xmlns="http://www.w3.org/2000/svg"
   xmlns:svg="http://www.w3.org/2000/svg"><sodipodi:namedview
     id="namedview7"
     pagecolor="#ffffff"
     bordercolor="#999999"
     borderopacity="1"
     inkscape:showpageshadow="0"
     inkscape:pageopacity="0"
     inkscape:pagecheckerboard="0"
     inkscape:deskcolor="#d1d1d1"
     inkscape:document-units="mm"
     showgrid="false" /><defs
     id="defs2" /><g
     inkscape:label="Warstwa 1"
     inkscape:groupmode="layer"
     id="layer1"
     transform="translate(-10.609896,-52.526663)"><path
       d="m 14.966267,56.837216 a 1.3252392,1.3252392 0 0 1 -1.663597,0 0.35289771,0.35289771 0 0 0 -0.451146,0.542784 2.0019571,2.0019571 0 0 0 2.565889,0 0.35289771,0.35289771 0 1 0 -0.451146,-0.542784 z m -1.360484,-1.490895 a 0.52868586,0.52868586 0 1 0 -0.528686,0.528686 0.52868586,0.52868586 0 0 0 0.528686,-0.528686 z m 1.586058,-0.352457 h -0.352458 a 0.3524575,0.3524575 0 0 0 0,0.704915 h 0.352458 a 0.3524575,0.3524575 0 0 0 0,-0.704915 z m -1.057372,-2.4672 a 3.5245723,3.5245723 0 1 0 3.524572,3.524572 3.5245723,3.5245723 0 0 0 -3.524572,-3.524572 z m 0,6.34423 a 2.819658,2.819658 0 1 1 2.819657,-2.819658 2.819658,2.819658 0 0 1 -2.819657,2.819658 z"
       fill="#6563ff"
       id="path9"
       style="fill:#333366;fill-opacity:1;stroke-width:0.352457" /></g></svg>
