<svg xmlns="http://www.w3.org/2000/svg" version="1.1" xmlns:xlink="http://www.w3.org/1999/xlink" xmlns:svgjs="http://svgjs.dev/svgjs" width="2000" height="1500" viewBox="0 0 2000 1500"><rect width="2000" height="1500" fill="#333366"></rect><g transform="matrix(0.75,0,0,0.75,248.9192923915034,185.70728744939265)"><svg viewBox="0 0 328 247" data-background-color="#333366" preserveAspectRatio="xMidYMid meet" height="1506" width="2000" xmlns="http://www.w3.org/2000/svg" xmlns:xlink="http://www.w3.org/1999/xlink"><g id="tight-bounds" transform="matrix(1,0,0,1,0.23631473039125694,-0.09999999999999432)"><svg viewBox="0 0 327.5273705392175 247.2" height="247.2" width="327.5273705392175"><g><svg viewBox="0 0 327.5273705392175 247.2" height="247.2" width="327.5273705392175"><g><svg viewBox="0 0 397.4975999999999 300.00975661432346" height="247.2" width="327.5273705392175"><g><rect width="397.4975999999999" height="9.257159359403389" x="0" y="93.72432585861293" fill="#ff6699" opacity="1" stroke-width="0" stroke="transparent" fill-opacity="1" class="rect-rb-0" data-fill-palette-color="secondary" rx="1%" id="rb-0" data-palette-color="#ff6699"></rect></g><g transform="matrix(1,0,0,1,0.9887999999999693,127.2148866824231)"><svg viewBox="0 0 395.52 172.79486993190037" height="172.79486993190037" width="395.52"><g><svg viewBox="0 0 395.52 172.79486993190037" height="172.79486993190037" width="395.52"><g><svg viewBox="0 0 395.52 102.6508474576271" height="102.6508474576271" width="395.52"><g transform="matrix(1,0,0,1,0,0)"><svg width="395.52" viewBox="1.7 -36.15 141.59 36.75" height="102.6508474576271" data-palette-color="#ffffff"><path d="M10.2 0.6Q6.95 0.6 4.33-1 1.7-2.6 1.7-6.8L1.7-6.8Q1.7-11.85 6.1-13.8 10.5-15.75 18.7-15.75L18.7-15.75 18.7-18.35Q18.7-20.5 17.57-21.63 16.45-22.75 13.4-22.75L13.4-22.75Q10.45-22.75 9.22-21.7 8-20.65 8-19.15L8-19.15 8-18.5 3-18.5Q2.95-18.8 2.95-19.6L2.95-19.6Q2.95-23.05 5.85-24.98 8.75-26.9 13.6-26.9L13.6-26.9Q18.7-26.9 21.28-24.8 23.85-22.7 23.85-18.85L23.85-18.85 23.85-5.4Q23.85-4.5 24.35-4.08 24.85-3.65 25.6-3.65L25.6-3.65 27.4-3.65 27.4-0.2Q26.1 0.45 23.85 0.45L23.85 0.45Q22.05 0.45 20.83-0.53 19.6-1.5 19.2-3.2L19.2-3.2 18.85-3.2Q17.45-1.4 15.28-0.4 13.1 0.6 10.2 0.6L10.2 0.6ZM11.7-3.6Q14.65-3.6 16.68-5.38 18.7-7.15 18.7-10.25L18.7-10.25 18.7-11.85Q13-11.85 10-10.88 7-9.9 7-7.2L7-7.2Q7-5.35 8.18-4.48 9.35-3.6 11.7-3.6L11.7-3.6ZM40 0.6Q35 0.6 32.3-2.78 29.6-6.15 29.6-13.15L29.6-13.15Q29.6-20.05 32.3-23.48 35-26.9 39.65-26.9L39.65-26.9Q45.1-26.9 47.6-23.3L47.6-23.3 47.9-23.3 47.9-36.15 53.05-36.15 53.05 0 48.95 0 48.45-3.5 48.1-3.5Q46.85-1.5 44.72-0.45 42.6 0.6 40 0.6L40 0.6ZM41.45-3.75Q44.8-3.75 46.35-6.05 47.9-8.35 47.9-12.85L47.9-12.85 47.9-13.25Q47.9-22.55 41.45-22.55L41.45-22.55Q37.9-22.55 36.4-20.43 34.9-18.3 34.9-13.3L34.9-13.3 34.9-12.85Q34.9-7.95 36.4-5.85 37.9-3.75 41.45-3.75L41.45-3.75ZM60.2 0L60.2-34.3 77.7-34.3Q80.5-34.3 82.67-33.25 84.85-32.2 86.07-30.28 87.3-28.35 87.3-25.85L87.3-25.85Q87.3-23 85.72-20.9 84.15-18.8 81.6-18L81.6-18 81.6-17.8Q84.6-17.15 86.42-14.93 88.25-12.7 88.25-9.25L88.25-9.25Q88.25-4.65 85.35-2.33 82.45 0 77.7 0L77.7 0 60.2 0ZM65.75-19.95L76.45-19.95Q78.8-19.95 80.22-21.28 81.65-22.6 81.65-24.75L81.65-24.75Q81.65-27.15 80.35-28.35 79.05-29.55 76.8-29.55L76.8-29.55 65.75-29.55 65.75-19.95ZM65.75-4.75L77.3-4.75Q79.8-4.75 81.2-6 82.6-7.25 82.6-9.9L82.6-9.9Q82.6-12.5 81.15-13.85 79.7-15.2 76.9-15.2L76.9-15.2 65.75-15.2 65.75-4.75ZM102.24 0.6Q93.89 0.6 93.89-8.45L93.89-8.45 93.89-26.3 99.04-26.3 99.04-9.1Q99.04-6.15 100.37-4.98 101.69-3.8 104.24-3.8L104.24-3.8Q105.99-3.8 107.49-4.67 108.99-5.55 109.87-7.15 110.74-8.75 110.74-10.85L110.74-10.85 110.74-26.3 115.89-26.3 115.89 0 111.74 0 111.24-3.5 110.89-3.5Q109.44-1.5 107.24-0.45 105.04 0.6 102.24 0.6L102.24 0.6ZM132.14 0.6Q126.74 0.6 123.92-1.65 121.09-3.9 121.09-7.3L121.09-7.3Q121.09-7.85 121.12-8.03 121.14-8.2 121.14-8.25L121.14-8.25 126.19-8.25 126.19-7.8Q126.19-5.65 127.94-4.58 129.69-3.5 132.39-3.5L132.39-3.5Q134.79-3.5 136.42-4.4 138.04-5.3 138.04-6.95L138.04-6.95Q138.04-8.25 137.14-9.08 136.24-9.9 134.94-10.38 133.64-10.85 131.19-11.5L131.19-11.5Q128.19-12.25 126.29-13 124.39-13.75 123.07-15.25 121.74-16.75 121.74-19.25L121.74-19.25Q121.74-22.85 124.69-24.88 127.64-26.9 132.54-26.9L132.54-26.9Q135.59-26.9 137.87-25.98 140.14-25.05 141.37-23.4 142.59-21.75 142.59-19.7L142.59-19.7 142.54-18.7 137.49-18.7 137.49-19.05Q137.49-20.7 136.17-21.73 134.84-22.75 132.09-22.75L132.09-22.75Q129.44-22.75 128.22-21.83 126.99-20.9 126.99-19.65L126.99-19.65Q126.99-18.1 128.49-17.35 129.99-16.6 133.24-15.85L133.24-15.85Q136.39-15.1 138.39-14.33 140.39-13.55 141.84-11.93 143.29-10.3 143.29-7.6L143.29-7.6Q143.29-3.4 140.27-1.4 137.24 0.6 132.14 0.6L132.14 0.6Z" opacity="1" transform="matrix(1,0,0,1,0,0)" fill="#ffffff" class="undefined-text-0" data-fill-palette-color="primary" id="text-0"></path></svg></g></svg></g><g transform="matrix(1,0,0,1,0,126.88424892203386)"><svg viewBox="0 0 395.52 45.9106210098665" height="45.9106210098665" width="395.52"><g transform="matrix(1,0,0,1,0,0)"><svg width="395.52" viewBox="2 -37.5 430.7 50" height="45.9106210098665" data-palette-color="#ff6699"><path d="M18-24.5L17.2-21.7Q15.4-22.3 12.3-22.3 9.2-22.3 7.5-21.2 5.8-20.1 5.8-18.48 5.8-16.85 6.8-16.1 7.8-15.35 9.3-14.83 10.8-14.3 12.58-13.8 14.35-13.3 15.85-12.5L15.85-12.5Q19.35-10.7 19.35-7.15 19.35-3.6 16.93-1.7 14.5 0.2 9.85 0.2L9.85 0.2Q7.5 0.2 5.33-0.28 3.15-0.75 2-1.6L2-1.6 3.1-4.25Q4.25-3.25 7.75-2.8L7.75-2.8Q8.85-2.65 10-2.65L10-2.65Q12.6-2.65 14.35-3.73 16.1-4.8 16.1-7L16.1-7Q16.1-8.5 15.1-9.35 14.1-10.2 12.6-10.78 11.1-11.35 9.33-11.8 7.55-12.25 6.05-12.98 4.55-13.7 3.55-14.88 2.55-16.05 2.55-18.05L2.55-18.05Q2.55-21.3 5.05-23.25 7.55-25.2 11.75-25.2L11.75-25.2Q12.8-25.2 13.9-25.08 15-24.95 15.9-24.85L15.9-24.85 18-24.5ZM26.25-12.3L26.25-11.5Q26.25-2.7 34.65-2.7L34.65-2.7Q38.2-2.7 41.15-3.65L41.15-3.65Q41.9-3.9 42.2-4.05L42.2-4.05 42.95-1.4Q41.2-0.35 36.6 0.1L36.6 0.1Q35.3 0.2 33.85 0.2L33.85 0.2Q29.65 0.2 26.85-1.9L26.85-1.9Q23-4.75 23-11.4 23-18.05 26.47-21.63 29.95-25.2 34.9-25.2 39.85-25.2 42.35-22L42.35-22Q44.25-19.45 44.25-15.25L44.25-15.25Q44.25-14.25 44.15-13.15L44.15-13.15 26.3-13.15Q26.25-12.75 26.25-12.3L26.25-12.3ZM35.1-22.1L35.1-22.1Q32-22.1 29.8-20.23 27.6-18.35 26.75-15.4L26.75-15.4 41.3-15.4Q41.05-20.95 37-21.85L37-21.85Q36.1-22.1 35.1-22.1ZM52.3 0L49.05 0 49.05-37.25 52.3-37.5 52.3 0ZM61.04 0L57.79 0 57.79-37.25 61.04-37.5 61.04 0ZM88.89 0L79.99-25 83.64-25.25 91.09-2.35 100.69-25 104.19-25 87.59 12.5 84.54 12.5 90.04 0 88.89 0ZM105.99-6.4L105.99-6.4Q105.09-8.8 105.09-12L105.09-12Q105.09-18.15 108.54-21.68 111.99-25.2 117.19-25.2L117.19-25.2Q125.34-25.2 127.89-18.6L127.89-18.6Q128.84-16.2 128.84-13L128.84-13Q128.84-6.85 125.39-3.33 121.94 0.2 116.74 0.2L116.74 0.2Q108.59 0.2 105.99-6.4ZM108.34-12.35Q108.34-7.75 110.71-5.23 113.09-2.7 116.84-2.7 120.59-2.7 123.09-5.38 125.59-8.05 125.59-12.65 125.59-17.25 123.24-19.78 120.89-22.3 117.11-22.3 113.34-22.3 110.84-19.63 108.34-16.95 108.34-12.35ZM139.03-3.2L139.03-3.2Q140.13-2.8 142.53-2.8 144.93-2.8 148.73-4.75L148.73-4.75 148.73-25 151.98-25.25 151.98 0 148.73 0 148.73-2.7Q145.03 0.15 141.18 0.15L141.18 0.15Q136.38 0.15 134.23-2.7L134.23-2.7Q133.13-4.1 133.13-6.6L133.13-6.6 133.13-25 136.38-25.25 136.38-7.45Q136.38-4.35 139.03-3.2ZM172.83-24.5L171.53-21.5Q170.73-21.95 169.83-21.95 168.93-21.95 168.83-21.9L168.83-21.9Q166.93-21.9 165.01-20.53 163.08-19.15 161.73-17.45L161.73-17.45 161.73 0 158.48 0 158.48-25 161.73-25.25 161.73-19.65Q163.58-22 164.88-22.95L164.88-22.95Q167.28-24.75 169.48-24.85L169.48-24.85Q169.78-24.9 170.58-24.9 171.38-24.9 172.83-24.5L172.83-24.5ZM194.03-37.5L194.03-23Q196.97-25.45 200.72-25.45L200.72-25.45Q207.13-25.45 209.68-19.8L209.68-19.8Q210.68-17.5 210.68-13.85L210.68-13.85Q210.68-7.1 207.13-3.55 203.58 0 197.93 0L197.93 0Q194.63 0 192.9-0.45 191.18-0.9 190.78-1.15L190.78-1.15 190.78-37.25 194.03-37.5ZM194.03-21.25L194.03-21.25 194.03-2.8Q195.47-2.45 197.18-2.45L197.18-2.45Q202.18-2.45 204.8-5.35 207.43-8.25 207.43-13.5 207.43-18.75 204.78-21L204.78-21Q202.93-22.55 199.97-22.55 197.03-22.55 194.03-21.25ZM221.42-3.2L221.42-3.2Q222.52-2.8 224.92-2.8 227.32-2.8 231.12-4.75L231.12-4.75 231.12-25 234.37-25.25 234.37 0 231.12 0 231.12-2.7Q227.42 0.15 223.57 0.15L223.57 0.15Q218.77 0.15 216.62-2.7L216.62-2.7Q215.52-4.1 215.52-6.6L215.52-6.6 215.52-25 218.77-25.25 218.77-7.45Q218.77-4.35 221.42-3.2ZM255.62-24.5L254.82-21.7Q253.02-22.3 249.92-22.3 246.82-22.3 245.12-21.2 243.42-20.1 243.42-18.48 243.42-16.85 244.42-16.1 245.42-15.35 246.92-14.83 248.42-14.3 250.19-13.8 251.97-13.3 253.47-12.5L253.47-12.5Q256.97-10.7 256.97-7.15 256.97-3.6 254.55-1.7 252.12 0.2 247.47 0.2L247.47 0.2Q245.12 0.2 242.94-0.28 240.77-0.75 239.62-1.6L239.62-1.6 240.72-4.25Q241.87-3.25 245.37-2.8L245.37-2.8Q246.47-2.65 247.62-2.65L247.62-2.65Q250.22-2.65 251.97-3.73 253.72-4.8 253.72-7L253.72-7Q253.72-8.5 252.72-9.35 251.72-10.2 250.22-10.78 248.72-11.35 246.94-11.8 245.17-12.25 243.67-12.98 242.17-13.7 241.17-14.88 240.17-16.05 240.17-18.05L240.17-18.05Q240.17-21.3 242.67-23.25 245.17-25.2 249.37-25.2L249.37-25.2Q250.42-25.2 251.52-25.08 252.62-24.95 253.52-24.85L253.52-24.85 255.62-24.5ZM299.77 0L293.87-20.1 287.17 0 284.17 0 275.92-25 279.56-25.25 285.92-4.1 292.42-25 295.56-25.25 301.17-4.05 308.52-25 312.37-25.25 302.77 0 299.77 0ZM315.96-25L319.21-25.25 319.21 0 315.96 0 315.96-25ZM317.46-31.7Q316.46-31.7 315.94-32.35 315.41-33 315.41-34 315.41-35 315.99-35.63 316.56-36.25 317.56-36.25 318.56-36.25 319.19-35.63 319.81-35 319.81-33.9 319.81-32.8 319.14-32.25 318.46-31.7 317.46-31.7ZM336.16-3.6L336.76-0.9Q335.86 0 333.51 0L333.51 0Q330.21 0 329.06-1.7L329.06-1.7Q327.11-3.55 327.11-6.7L327.11-6.7 327.11-22.1 324.31-22.1 324.76-25 327.11-25 327.11-29.95 330.36-30.25 330.36-25 336.16-25 336.16-22.1 330.36-22.1 330.36-5.9Q330.36-3 333.36-3L333.36-3Q334.66-3 336.16-3.6L336.16-3.6ZM345.06-37.5L345.06-22.15Q349.01-25 352.66-25.15L352.66-25.15Q355.76-25.15 357.41-24.4 359.06-23.65 360.11-22.28 361.16-20.9 361.16-18.4L361.16-18.4 361.16 0 357.91 0 357.91-17.55Q357.91-19.4 357.11-20.4L357.11-20.4Q355.51-22.25 352.21-22.25L352.21-22.25Q348.96-22.1 345.06-20.15L345.06-20.15 345.06 0 341.81 0 341.81-37.25 345.06-37.5ZM387.5-3.2L387.5-3.2Q388.6-2.8 391-2.8 393.4-2.8 397.2-4.75L397.2-4.75 397.2-25 400.45-25.25 400.45 0 397.2 0 397.2-2.7Q393.5 0.15 389.65 0.15L389.65 0.15Q384.85 0.15 382.7-2.7L382.7-2.7Q381.6-4.1 381.6-6.6L381.6-6.6 381.6-25 384.85-25.25 384.85-7.45Q384.85-4.35 387.5-3.2ZM421.7-24.5L420.9-21.7Q419.1-22.3 416-22.3 412.9-22.3 411.2-21.2 409.5-20.1 409.5-18.48 409.5-16.85 410.5-16.1 411.5-15.35 413-14.83 414.5-14.3 416.28-13.8 418.05-13.3 419.55-12.5L419.55-12.5Q423.05-10.7 423.05-7.15 423.05-3.6 420.63-1.7 418.2 0.2 413.55 0.2L413.55 0.2Q411.2 0.2 409.03-0.28 406.85-0.75 405.7-1.6L405.7-1.6 406.8-4.25Q407.95-3.25 411.45-2.8L411.45-2.8Q412.55-2.65 413.7-2.65L413.7-2.65Q416.3-2.65 418.05-3.73 419.8-4.8 419.8-7L419.8-7Q419.8-8.5 418.8-9.35 417.8-10.2 416.3-10.78 414.8-11.35 413.03-11.8 411.25-12.25 409.75-12.98 408.25-13.7 407.25-14.88 406.25-16.05 406.25-18.05L406.25-18.05Q406.25-21.3 408.75-23.25 411.25-25.2 415.45-25.2L415.45-25.2Q416.5-25.2 417.6-25.08 418.7-24.95 419.6-24.85L419.6-24.85 421.7-24.5ZM432.55-35L432.55-6.45 429.55-6.45 429.55-34.75 432.55-35ZM432.05-2.4L432.05-2.4Q430.85-2.4 430.15-1.6 429.45-0.8 429.45 0.15 429.45 1.1 430.25 1.1L430.25 1.1Q431.2 1.1 431.95 0.35 432.7-0.4 432.7-1.4 432.7-2.4 432.05-2.4Z" opacity="1" transform="matrix(1,0,0,1,0,0)" fill="#ff6699" class="undefined-text-1" data-fill-palette-color="secondary" id="text-1"></path></svg></g></svg></g></svg></g></svg></g><g transform="matrix(1,0,0,1,76.53311999999995,0)"><svg viewBox="0 0 244.43136 69.49092439420616" height="69.49092439420616" width="244.43136"><g><svg xmlns="http://www.w3.org/2000/svg" xmlns:xlink="http://www.w3.org/1999/xlink" version="1.1" x="8" y="0" viewBox="5 36.31033333334014 89.99946563055393 27.37866666665986" enable-background="new 0 0 100 100" xml:space="preserve" height="69.49092439420616" width="228.43136" class="icon-icon-0" data-fill-palette-color="accent" id="icon-0"><g fill="#ffffff" data-fill-palette-color="accent"><g fill="#ffffff" data-fill-palette-color="accent"><g fill="#ffffff" data-fill-palette-color="accent"><g fill="#ffffff" data-fill-palette-color="accent"><path d="M73.477 55.615c-2.229 0-4.037 1.808-4.037 4.037 0 2.229 1.809 4.037 4.037 4.037 2.229 0 4.037-1.809 4.037-4.037C77.514 57.423 75.706 55.615 73.477 55.615zM73.477 61.007c-0.748 0-1.354-0.606-1.354-1.354s0.605-1.354 1.354-1.354 1.354 0.605 1.354 1.354S74.225 61.007 73.477 61.007z" fill="#ffffff" data-fill-palette-color="accent"></path></g><g fill="#ffffff" data-fill-palette-color="accent"><path d="M28.251 55.615c-2.229 0-4.037 1.808-4.037 4.037 0 2.229 1.807 4.037 4.037 4.037s4.038-1.809 4.038-4.037C32.289 57.423 30.481 55.615 28.251 55.615zM28.312 61.007c-0.748 0-1.354-0.606-1.354-1.354s0.606-1.354 1.354-1.354 1.354 0.605 1.354 1.354S29.059 61.007 28.312 61.007z" fill="#ffffff" data-fill-palette-color="accent"></path></g><g fill="#ffffff" data-fill-palette-color="accent"><path d="M31.146 55.896c0.159 0.117 0.31 0.244 0.452 0.381C31.461 56.141 31.311 56.012 31.146 55.896z" fill="#ffffff" data-fill-palette-color="accent"></path></g><g fill="#ffffff" data-fill-palette-color="accent"><path d="M94.99 45.191c-0.102-1.482-0.307-4.242-5.417-3.782 0 0-1.481-4.804-9.097-5.008-7.613-0.204-16.302 0-18.908 0-2.604 0-3.883-0.307-4.496 1.533 0 0-39.399 0-41.34 0-3.169 0-4.191-1.022-5.877-0.92-2.592 0.157-3.782 2.708-4.14 5.57C5.358 45.446 5 53.673 5 56.586s0.767 2.913 1.891 3.117 6.183 1.227 7.206 1.227c1.021 0 8.789-0.103 9.556 0.153 0 0-0.313-2.774 1.33-4.51 0.839-0.964 2.072-1.571 3.449-1.571 1.017 0 1.956 0.332 2.715 0.895 0.166 0.115 0.316 0.244 0.452 0.381 0.867 0.832 1.407 2.002 1.407 3.299 0 0.502-0.082 0.984-0.231 1.438-0.014 0.109-0.024 0.174-0.024 0.174s32.041-0.053 33.522-0.053c1.48 0 2.709 0.357 2.709 0.357s-0.103-0.775 0.002-1.782c0-0.045-0.002-0.089-0.002-0.134 0-2.525 2.047-4.573 4.572-4.573 2.526 0 4.574 2.048 4.574 4.573 0 0.117-0.006 0.232-0.016 0.348 0.066 0.954-0.036 1.672-0.036 1.672s8.993-0.205 11.09-0.205c2.095 0 3.168-0.971 3.168-2.146s-0.103-7.41-0.103-7.41l-0.869-0.051c0 0-0.459-6.796-1.481-9.146 0 0 3.118-0.613 4.089 0.971l-0.256 0.409c0 0 0.102 2.606 0.357 2.657C94.327 46.726 95.093 46.672 94.99 45.191zM21.637 46.647c0 0.296-0.24 0.537-0.537 0.537 0 0-10.99 0-11.536 0s-2.748-1.237-2.578-4.318c0.173-3.124 2.166-3.973 2.578-3.973s11.536 0 11.536 0c0.296 0 0.537 0.24 0.537 0.536V46.647zM34.917 46.647c0 0.296-0.24 0.537-0.537 0.537H23.17c-0.296 0-0.537-0.24-0.537-0.537v-7.218c0-0.296 0.241-0.536 0.537-0.536h11.21c0.297 0 0.537 0.24 0.537 0.536V46.647zM48.14 46.647c0 0.296-0.241 0.537-0.537 0.537h-11.21c-0.296 0-0.536-0.24-0.536-0.537v-7.218c0-0.296 0.24-0.536 0.536-0.536h11.211c0.296 0 0.537 0.24 0.537 0.536L48.14 46.647 48.14 46.647zM61.343 46.647c0 0.296-0.239 0.537-0.536 0.537H49.654c-0.296 0-0.536-0.24-0.536-0.537v-7.218c0-0.296 0.24-0.536 0.536-0.536h11.153c0.297 0 0.536 0.24 0.536 0.536V46.647zM76.836 46.902c0.219 0.422 0.077 0.307-0.562 0.307-0.639 0-13.185-0.025-13.504-0.025-0.318 0-0.408-0.025-0.408-0.511 0-0.485-0.025-7.052-0.025-7.371 0-0.319 0-0.409 0.498-0.409 0.499 0 14.193 0.038 14.193 0.038s-0.996 2.402-0.996 4.19S76.619 46.481 76.836 46.902zM82.751 51.604c0 0.205-0.19 0-0.983-0.918-0.791-0.92-3.691-4.575-3.652-7.245 0.035-2.555 1.162-4.408 1.57-4.471 0.408-0.064 2.504-0.039 2.504-0.039s0.562-0.102 0.562 0.587C82.751 40.208 82.751 51.398 82.751 51.604zM86.955 52.447c0 0.296-0.241 0.535-0.537 0.535h-2.3c-0.296 0-0.536-0.239-0.536-0.535V39.493c0-0.296 0.24-0.537 0.536-0.537h2.3c0.296 0 0.537 0.24 0.537 0.537V52.447z" fill="#ffffff" data-fill-palette-color="accent"></path></g></g></g></g></svg><g></g></g></svg></g><g></g></svg></g></svg></g><defs></defs></svg><rect width="327.5273705392175" height="247.2" fill="none" stroke="none" visibility="hidden"></rect></g></svg></g></svg>