<?xml version="1.0" encoding="UTF-8" standalone="no"?>
<!-- Created with Inkscape (http://www.inkscape.org/) -->

<svg
   width="4.2328453mm"
   height="5.2893677mm"
   viewBox="0 0 4.2328453 5.2893677"
   version="1.1"
   id="svg5"
   xml:space="preserve"
   xmlns:inkscape="http://www.inkscape.org/namespaces/inkscape"
   xmlns:sodipodi="http://sodipodi.sourceforge.net/DTD/sodipodi-0.dtd"
   xmlns="http://www.w3.org/2000/svg"
   xmlns:svg="http://www.w3.org/2000/svg"><sodipodi:namedview
     id="namedview7"
     pagecolor="#ffffff"
     bordercolor="#999999"
     borderopacity="1"
     inkscape:showpageshadow="0"
     inkscape:pageopacity="0"
     inkscape:pagecheckerboard="0"
     inkscape:deskcolor="#d1d1d1"
     inkscape:document-units="mm"
     showgrid="false" /><defs
     id="defs2" /><g
     inkscape:label="Warstwa 1"
     inkscape:groupmode="layer"
     id="layer1"
     transform="translate(-60.077329,-199.13178)"><path
       style="fill:#333366;fill-opacity:1;stroke-width:0.0625"
       d="m 229.67397,772.55965 c -1.30489,-0.15206 -2.39481,-1.27729 -2.55073,-2.63335 -0.0791,-0.68805 -0.0791,-13.91455 0,-14.6026 0.16127,-1.40265 1.23531,-2.47669 2.63796,-2.63796 0.77823,-0.0895 6.16583,-0.0785 6.53478,0.0134 0.2795,0.0696 0.49388,0.26997 3.49341,3.26562 l 3.19565,3.19152 0.0387,0.3056 c 0.063,0.49714 0.0432,9.89699 -0.022,10.46445 -0.16127,1.40265 -1.23531,2.47668 -2.63796,2.63796 -0.61714,0.071 -10.07639,0.0669 -10.68983,-0.005 z m 10.93598,-2.05931 c 0.11203,-0.0683 0.25958,-0.21586 0.32789,-0.3279 0.12099,-0.19845 0.1242,-0.32401 0.12443,-4.87557 l 2.3e-4,-4.67187 -1.39063,-5e-4 c -1.81084,-6.3e-4 -2.30219,-0.058 -2.87942,-0.33655 -0.59524,-0.28719 -1.10573,-0.79769 -1.39292,-1.39293 -0.27851,-0.5772 -0.33594,-1.06855 -0.33656,-2.8794 l -4.7e-4,-1.39062 -2.67188,2.3e-4 c -2.55587,2.2e-4 -2.68071,0.006 -2.87557,0.12443 -0.11203,0.0683 -0.25958,0.21586 -0.32789,0.32789 -0.12206,0.2002 -0.12419,0.32957 -0.12419,7.54745 0,7.21788 0.002,7.34724 0.12419,7.54744 0.0683,0.11204 0.21586,0.25959 0.32789,0.32789 0.19907,0.12137 0.32525,0.1242 5.54745,0.1242 5.2222,0 5.34838,-0.003 5.54745,-0.1242 z m -2.20426,-13.18853 -1.31194,-1.31318 -0.0172,0.97651 c -0.0193,1.09517 0.0209,1.23977 0.4205,1.50902 0.19531,0.13163 0.27478,0.14084 1.21481,0.14084 h 1.00582 z"
       id="path3076"
       transform="scale(0.26458333)" /><path
       style="fill:#333366;fill-opacity:1;stroke-width:0.0625"
       d="m 231.89219,760.56818 c -0.5249,-0.13478 -0.78518,-0.489 -0.75097,-1.022 0.0312,-0.48575 0.28029,-0.75801 0.79063,-0.86408 0.48313,-0.10041 1.31983,-0.0416 1.58133,0.1111 0.65365,0.38175 0.65107,1.28336 -0.005,1.66639 -0.16053,0.0938 -0.35165,0.12704 -0.81229,0.14148 -0.3313,0.0104 -0.69306,-0.004 -0.80392,-0.0329 z"
       id="path3078"
       transform="scale(0.26458333)" /><path
       style="fill:#333366;fill-opacity:1;stroke-width:0.0625"
       d="m 231.89219,764.56569 c -0.5213,-0.12741 -0.78523,-0.48572 -0.75097,-1.01951 0.0197,-0.30765 0.0535,-0.39147 0.23217,-0.57577 0.32857,-0.339 0.49556,-0.35329 3.8845,-0.33261 2.91976,0.0178 3.03085,0.0229 3.2419,0.14683 0.67129,0.39435 0.67129,1.28639 0,1.68074 -0.2118,0.12442 -0.314,0.12871 -3.31229,0.13898 -1.70156,0.006 -3.18445,-0.0116 -3.29531,-0.0387 z"
       id="path3080"
       transform="scale(0.26458333)" /><path
       style="fill:#333366;fill-opacity:1;stroke-width:0.0625"
       d="m 231.89219,768.56569 c -0.88707,-0.2168 -1.05239,-1.31967 -0.26698,-1.78106 0.21281,-0.12502 0.30289,-0.12838 3.43729,-0.12838 3.1344,0 3.22448,0.003 3.43729,0.12838 0.67129,0.39435 0.67129,1.28639 0,1.68074 -0.2118,0.12442 -0.314,0.12871 -3.31229,0.13898 -1.70156,0.006 -3.18445,-0.0116 -3.29531,-0.0387 z"
       id="path3082"
       transform="scale(0.26458333)" /></g></svg>
