<?xml version="1.0" encoding="UTF-8" standalone="no"?>
<!-- Created with Inkscape (http://www.inkscape.org/) -->

<svg
   width="8.6965714mm"
   height="8.700592mm"
   viewBox="0 0 8.6965714 8.700592"
   version="1.1"
   id="svg5"
   xml:space="preserve"
   xmlns:inkscape="http://www.inkscape.org/namespaces/inkscape"
   xmlns:sodipodi="http://sodipodi.sourceforge.net/DTD/sodipodi-0.dtd"
   xmlns="http://www.w3.org/2000/svg"
   xmlns:svg="http://www.w3.org/2000/svg"><sodipodi:namedview
     id="namedview7"
     pagecolor="#ffffff"
     bordercolor="#999999"
     borderopacity="1"
     inkscape:showpageshadow="0"
     inkscape:pageopacity="0"
     inkscape:pagecheckerboard="0"
     inkscape:deskcolor="#d1d1d1"
     inkscape:document-units="mm"
     showgrid="false" /><defs
     id="defs2" /><g
     inkscape:label="Warstwa 1"
     inkscape:groupmode="layer"
     id="layer1"
     transform="translate(-55.358377,-106.38162)"><path
       id="path893"
       style="fill:#333366;fill-opacity:1;stroke-width:0.435028"
       d="m 56.663464,106.38166 a 1.3050859,1.3050859 0 0 0 -1.305086,1.30508 v 6.09038 a 1.3050859,1.3050859 0 0 0 1.305086,1.30509 h 3.0452 a 0.43503136,0.43503136 0 0 0 0,-0.87004 h -3.0452 a 0.43502862,0.43502862 0 0 1 -0.435028,-0.43505 v -6.09038 a 0.43502862,0.43502862 0 0 1 0.435028,-0.43505 h 2.175143 v 1.30509 a 1.3050859,1.3050859 0 0 0 1.305087,1.30509 h 1.305085 v 0.43504 a 0.4350289,0.4350289 0 0 0 0.870057,0 v -0.87006 -0.0263 a 0.56988751,0.56988751 0 0 0 -0.02634,-0.1173 v -0.0392 a 0.46548063,0.46548063 0 0 0 -0.08242,-0.12146 l -2.610171,-2.61017 a 0.46548063,0.46548063 0 0 0 -0.121504,-0.0833 0.13920917,0.13920917 0 0 0 -0.03908,0 0.38282518,0.38282518 0 0 0 -0.143588,-0.0475 z m 3.0452,1.4835 1.126657,1.12667 h -0.691627 a 0.43502862,0.43502862 0 0 1 -0.43503,-0.43505 z m -2.175143,1.12667 a 0.43503136,0.43503136 0 0 0 0,0.87004 h 0.435029 a 0.43503136,0.43503136 0 0 0 0,-0.87004 z m 0,1.7401 a 0.435035,0.435035 0 0 0 0,0.87007 h 2.610173 a 0.435035,0.435035 0 0 0 0,-0.87007 z m 4.484533,1.12325 c -0.03503,0.004 -0.06979,0.0104 -0.104501,0.018 -0.05342,0.0117 -0.107157,0.026 -0.158879,0.0443 -0.02578,0.0104 -0.04775,0.0182 -0.07307,0.0298 -0.09574,0.0424 -0.188066,0.0914 -0.277841,0.14534 -0.08104,0.0499 -0.157745,0.10675 -0.230259,0.16824 -0.04045,0.0333 -0.07677,0.0713 -0.106219,0.11469 -0.03135,0.0475 -0.05471,0.0996 -0.07647,0.1521 -0.0182,0.0458 -0.02828,0.0936 -0.03058,0.14271 -0.0016,0.062 0.01211,0.12238 0.02464,0.18267 0.01414,0.0679 0.02846,0.13615 0.04248,0.20393 0.01237,0.0476 0.02365,0.0954 0.03399,0.14355 0.01562,0.0767 0.02338,0.10923 0.03653,0.18775 0.01055,0.0627 0.01987,0.12564 0.0272,0.18865 0.02136,0.0212 0.04221,0.0427 0.06373,0.0638 0.07434,0.0717 0.152764,0.13859 0.231958,0.20476 0.07695,0.0424 0.151069,0.0896 0.226013,0.13516 0.09656,0.0582 0.19031,0.12146 0.289735,0.17502 0.06058,0.0326 0.06983,0.035 0.130845,0.0628 0.08496,0.0357 0.173853,0.0639 0.265945,0.0721 0.01496,6.1e-4 0.02921,9.9e-4 0.04417,0.001 0.07315,0.004 0.140316,-0.023 0.207317,-0.0486 0.04081,-0.0148 0.0806,-0.0338 0.119798,-0.0526 -0.01463,-0.0707 0.0023,-0.10714 0.107912,-0.0526 0.09416,-0.0448 0.177082,-0.0564 0.243855,-0.0458 -0.01562,-0.0575 -0.01496,-0.13006 0.0077,-0.21411 -0.0066,-0.0199 -0.01055,-0.0414 -0.01107,-0.0655 -0.01726,-0.0301 -0.03363,-0.0605 -0.05013,-0.0909 -0.01496,-0.0276 -0.02721,-0.0542 -0.03653,-0.0799 -0.02552,0.0329 -0.05701,0.0618 -0.09431,0.0875 -0.03614,0.0224 -0.0449,0.0295 -0.08411,0.0486 -0.07404,0.0358 -0.153174,0.0594 -0.232807,0.079 -0.0796,0.0174 -0.158863,0.0327 -0.239606,0.0443 -0.05576,0.007 -0.130109,0.017 -0.186077,0.0187 -0.03437,0.001 -0.06929,-7.1e-4 -0.103667,-8.6e-4 -0.03105,-0.004 -0.06181,-0.007 -0.09262,-0.0117 -0.105803,-0.0187 -0.221118,-0.0625 -0.314376,-0.11561 -0.02364,-0.0132 -0.04596,-0.0294 -0.06883,-0.0443 -0.05398,-0.043 -0.07414,-0.0548 -0.120644,-0.10624 -0.07153,-0.079 -0.121387,-0.17333 -0.153782,-0.27444 -0.0069,-0.0286 -0.0153,-0.0569 -0.02039,-0.0858 -0.01802,-0.10193 -0.01315,-0.21117 0.01446,-0.31097 0.0069,-0.0253 0.01627,-0.0492 0.02464,-0.0739 0.0112,-0.0236 0.02165,-0.0483 0.03399,-0.0713 0.01871,-0.035 0.04058,-0.0683 0.06373,-0.10025 -0.193969,-0.0932 -0.161395,-0.36563 0.175033,-0.43332 0.09937,-0.02 0.04758,-0.0117 0.155491,-0.0306 0.03169,-0.004 0.06254,-0.008 0.09431,-0.0117 0.06048,-0.007 0.121934,-0.008 0.18268,-0.0104 v 8.6e-4 8.3e-4 8.6e-4 c 0.133641,-10e-4 0.266453,0.0117 0.396793,0.0424 0.0345,0.0104 0.06935,0.019 0.103668,0.0289 0.116478,0.0348 0.232879,0.0769 0.339866,0.13516 v -8.4e-4 c 0.274054,0.14913 0.254347,0.37261 0.08411,0.43588 0.02984,0.0651 0.04719,0.1186 0.06628,0.18692 0.01381,0.0495 0.03292,0.12823 0.04163,0.17928 0.0036,0.0207 0.0052,0.0405 0.0077,0.0612 0.02627,-0.0148 0.05633,-0.0224 0.08836,-0.0229 0.05054,-5.4e-4 0.105777,0.0187 0.158879,0.0612 0.01513,-0.0352 0.02985,-0.0707 0.04417,-0.10623 0.01657,-0.0413 0.04137,-0.10376 0.05353,-0.14699 0.0056,-0.0201 0.0092,-0.0401 0.01364,-0.0604 -0.0056,-0.0174 -0.01081,-0.0358 -0.0153,-0.0552 -0.02139,-0.0939 -0.05554,-0.1847 -0.08752,-0.27529 -0.04353,-0.11704 -0.09974,-0.22777 -0.158879,-0.33733 -2.98e-4,-2.6e-4 -5.49e-4,-5.7e-4 -8.49e-4,-8.6e-4 -0.02187,-0.0195 -0.04439,-0.038 -0.06711,-0.0561 -0.02782,-0.0221 -0.0573,-0.0426 -0.08581,-0.0638 -0.119564,-0.0823 -0.246248,-0.15374 -0.378951,-0.21243 -0.07947,-0.0351 -0.107626,-0.0444 -0.188626,-0.0739 -0.129483,-0.0452 -0.262529,-0.0781 -0.396793,-0.10546 z m -4.484533,0.61686 a 0.43503285,0.43503285 0 0 0 0,0.87006 h 1.740115 a 0.43503285,0.43503285 0 0 0 0,-0.87006 z m 5.810862,1.71038 c -0.04216,0.0296 -0.08309,0.0444 -0.120658,0.0467 10e-4,0.004 0.0026,0.007 0.0035,0.0117 0.139494,0.0211 0.223938,0.0881 0.254901,0.16483 -0.0021,-0.0296 -2.87e-4,-0.0574 0.0059,-0.0824 -0.04269,-0.0431 -0.08655,-0.0845 -0.129992,-0.12655 -0.0046,-0.005 -0.009,-0.0104 -0.01364,-0.0131 z m 0.151233,0.29313 c -1.75e-4,0.0131 -0.0012,0.0251 -0.0043,0.0374 0.0082,0.007 0.01644,0.0117 0.02464,0.018 -0.0086,-0.0189 -0.01496,-0.0371 -0.02039,-0.0552 z" /><path
       style="fill:#dd5886;fill-opacity:1;stroke-width:0.00961288"
       d="m 63.5608,115.07346 c -0.03307,-0.004 -0.08639,-0.022 -0.124966,-0.0411 -0.05977,-0.0297 -0.09829,-0.0644 -0.344808,-0.31138 l -0.277519,-0.278 -0.08777,0.0409 c -0.238444,0.11118 -0.517248,0.16239 -0.760751,0.13973 -0.210606,-0.0197 -0.3595,-0.0617 -0.547854,-0.15481 -0.323057,-0.15975 -0.571389,-0.42363 -0.715004,-0.75977 -0.167308,-0.3916 -0.155027,-0.88255 0.0318,-1.27185 0.103824,-0.2163 0.295445,-0.4431 0.490934,-0.58104 0.1535,-0.10831 0.38196,-0.20815 0.562353,-0.2458 0.419816,-0.0876 0.868918,0.013 1.216026,0.27132 0.107717,0.0803 0.286145,0.2676 0.357865,0.37568 0.165049,0.24875 0.24017,0.48637 0.249558,0.78936 0.0044,0.14363 0.0022,0.18562 -0.01514,0.28714 -0.02393,0.14012 -0.0714,0.28779 -0.132649,0.41289 l -0.04408,0.0901 0.283856,0.28508 c 0.178558,0.17934 0.291387,0.30014 0.304146,0.32565 0.08741,0.17477 0.05396,0.37352 -0.08518,0.50624 -0.102418,0.0978 -0.224382,0.13818 -0.360847,0.11977 z m -1.302541,-1.33103 c 0.09363,-0.0207 0.209801,-0.0824 0.284696,-0.15093 0.272889,-0.24989 0.286279,-0.67477 0.02936,-0.93195 -0.07841,-0.0785 -0.145783,-0.1216 -0.248358,-0.15902 -0.06465,-0.0236 -0.08247,-0.0258 -0.214699,-0.0258 -0.132684,-5e-5 -0.150399,0.003 -0.221965,0.0267 -0.165325,0.0568 -0.300444,0.17564 -0.373956,0.32895 -0.05304,0.11066 -0.06656,0.1694 -0.06636,0.28839 3.21e-4,0.17734 0.06222,0.33233 0.180354,0.45162 0.163392,0.16499 0.387318,0.22605 0.630918,0.17203 z"
       id="path5971" /></g></svg>
